<svg height="9.847393mm" viewBox="0 0 20 34.892337" width="5.644445mm" xmlns="http://www.w3.org/2000/svg"><g transform="matrix(1.1855854 0 0 1.1855854 -965.7731 -331.78383)"><path d="m817.11249 282.97118c-1.25816 1.34277-2.04623 3.29881-2.01563 5.13867.0639 3.84476 1.79693 5.3002 4.56836 10.59179.99832 2.32851 2.04027 4.79237 3.03125 8.87305.13772.60193.27203 1.16104.33416 1.20948.0621.0485.19644-.51262.33416-1.11455.99098-4.08068 2.03293-6.54258 3.03125-8.87109 2.77143-5.29159 4.50444-6.74704 4.56836-10.5918.0306-1.83986-.75942-3.79785-2.01758-5.14062-1.43724-1.53389-3.60504-2.66908-5.91619-2.71655-2.31115-.0475-4.4809 1.08773-5.91814 2.62162z" fill="#ff4646" stroke="#d73534"/><circle cx="823.03064" cy="288.25278" fill="#590000" r="3.0355"/></g></svg>